<svg width="32" height="32" viewBox="0 0 32 32" fill="none" xmlns="http://www.w3.org/2000/svg">
<path d="M8.00253 7.39026C7.19862 7.39026 6.39139 7.68148 5.75469 8.27168L1.0619 12.6157C-0.280165 13.8581 -0.360999 15.952 0.881405 17.2941C1.53361 17.9994 2.42168 18.356 3.31196 18.356C4.11587 18.356 4.9231 18.0647 5.5598 17.4746L10.2526 13.1306C11.5947 11.8882 11.6755 9.79423 10.4331 8.45217C9.78088 7.74681 8.89281 7.39026 8.00253 7.39026Z" fill="#7CDDAE"/>
<path d="M30.9362 12.568L18.335 0.964469C18.2265 0.864811 18.1114 0.776226 17.994 0.694285C17.4359 0.261326 16.7361 0 15.9742 0C14.1516 0 12.6733 1.47715 12.6733 3.3009V28.5C12.6733 30.3226 14.1505 31.8009 15.9742 31.8009C17.7969 31.8009 19.2751 30.3237 19.2751 28.5V10.8029L26.4638 17.4236C27.8048 18.6582 29.8932 18.5718 31.1278 17.2309C32.3625 15.8899 32.2761 13.8015 30.9351 12.5669L30.9362 12.568Z" fill="#7CDDAE"/>
</svg>
